Coordinates
version=1
nRows=4
nColumns=63
inDegrees=yes

Units are S.I. units (second, meters, Newtons, ...)
If the header above contains a line with 'inDegrees', this indicates whether rotational values are in degrees (yes) or radians (no).

endheader
time	pelvis_tilt	pelvis_list	pelvis_rotation	pelvis_tx	pelvis_ty	pelvis_tz	hip_flexion_r	hip_adduction_r	hip_rotation_r	knee_angle_r	knee_angle_r_beta	ankle_angle_r	subtalar_angle_r	mtp_angle_r	hip_flexion_l	hip_adduction_l	hip_rotation_l	knee_angle_l	knee_angle_l_beta	ankle_angle_l	subtalar_angle_l	mtp_angle_l	L5_S1_Flex_Ext	L5_S1_Lat_Bending	L5_S1_axial_rotation	L4_L5_Flex_Ext	L4_L5_Lat_Bending	L4_L5_axial_rotation	L3_L4_Flex_Ext	L3_L4_Lat_Bending	L3_L4_axial_rotation	L2_L3_Flex_Ext	L2_L3_Lat_Bending	L2_L3_axial_rotation	L1_L2_Flex_Ext	L1_L2_Lat_Bending	L1_L2_axial_rotation	L1_T12_Flex_Ext	L1_T12_Lat_Bending	L1_T12_axial_rotation	Abs_r3	Abs_r2	Abs_r1	Abs_t1	Abs_t2	neck_flexion	neck_bending	neck_rotation	arm_flex_r	arm_add_r	arm_rot_r	elbow_flex_r	pro_sup_r	wrist_flex_r	wrist_dev_r	arm_flex_l	arm_add_l	arm_rot_l	elbow_flex_l	pro_sup_l	wrist_flex_l	wrist_dev_l
      1.52173913	     -0.62495263	     -0.57325501	     91.01184155	      0.21422944	      0.75887898	      0.78991286	     14.71805368	      1.27125378	     10.98804581	     24.23918196	      0.42305353	     42.53813363	     -8.91343031	      0.00000000	      9.20312143	     -1.33583059	    -20.79159449	     20.38462428	      0.35577881	     41.29021607	     16.51325491	      0.00000000	      0.54006068	     -1.43358497	     -0.69035996	      1.00294669	     -1.90666801	     -0.73350746	      0.88726570	     -3.48561849	     -0.73350746	      0.61723535	     -3.48561849	     -0.60406497	      0.50150035	     -2.92336647	     -0.56091747	      0.30859067	     -2.22062312	     -0.51776997	      3.85759945	    -16.21699988	     -3.83957502	      0.00000000	      0.00000000	     28.38712788	      6.54887547	    -20.46675465	     27.60088490	     -0.62765273	    -17.44574932	    134.79853227	     87.60690157	     -2.15094874	     -4.25309299	     12.36340151	    -16.81908720	    124.13709087	      9.73350476	      5.63120791	    -11.35225964	     -4.14813648
      1.54347826	     -0.39738318	     -0.21565518	     91.11117036	      0.21274884	      0.76117510	      0.79034644	     13.88118405	      1.33457881	     10.82336150	     23.39648445	      0.40834569	     41.74867428	     -8.91494272	      0.00000000	      8.50538955	     -1.36178785	    -20.89498107	     19.56836267	      0.34153236	     40.72625976	     16.66372650	      0.00000000	      0.53432548	     -1.36813936	     -0.79287021	      0.99229584	     -1.81962535	     -0.84242460	      0.87784332	     -3.32649403	     -0.84242460	      0.61068059	     -3.32649403	     -0.69376143	      0.49617464	     -2.78990978	     -0.64420704	      0.30531358	     -2.11924786	     -0.59465266	      3.81663344	    -15.47666604	     -4.40970624	      0.00000000	      0.00000000	     28.39521271	      7.33772981	    -18.06575056	     30.65707348	     -0.15973670	    -17.67547477	    131.31763723	     87.26861557	     -7.26295068	      0.43601652	     12.00291112	    -16.38501731	    122.89642336	     10.19753256	      4.85122725	    -11.60557280	     -5.57999608
      1.56521739	     -0.16881009	     -0.05374126	     91.11329596	      0.21136574	      0.76285582	      0.79089503	     13.34419941	      1.43606565	     10.78704714	     22.67985493	      0.39583814	     41.02917860	     -9.08574589	      0.00000000	      8.08849519	     -1.41229244	    -20.87405239	     18.91109650	      0.33006090	     40.21559200	     16.68123003	      0.00000000	      0.56223485	     -1.29930261	     -0.81709072	      1.04412634	     -1.72807247	     -0.86815889	      0.92369564	     -3.15912437	     -0.86815889	      0.64257821	     -3.15912437	     -0.71495438	      0.52209128	     -2.64953789	     -0.66388621	      0.32126099	     -2.01261975	     -0.61281804	      4.01598732	    -14.69797100	     -4.54441347	      0.00000000	      0.00000000	     28.40408564	      8.03584127	    -15.83066650	     32.75261243	     -0.24311643	    -17.33470734	    128.18217616	     87.38698512	    -13.63603329	      5.46506835	     11.76495632	    -15.81856602	    122.55725553	     10.32718179	      5.01291256	    -11.36256954	     -6.76562708
      1.58695652	     -0.04731294	      0.26185109	     91.04872874	      0.21005154	      0.76444699	      0.79166897	     12.70420694	      1.42847530	     10.78094179	     21.99265667	      0.38384427	     40.42170285	     -9.20109895	      0.00000000	      7.53074033	     -1.36100954	    -20.92105112	     18.30068872	      0.31940727	     39.72072132	     16.68946870	      0.00000000	      0.55621494	     -1.24379204	     -0.78064674	      1.03294677	     -1.65424341	     -0.82943717	      0.91380553	     -3.02415596	     -0.82943717	      0.63569806	     -3.02415596	     -0.68306590	      0.51650120	     -2.53634072	     -0.63427548	      0.31782122	     -1.92663386	     -0.58548506	      3.97298771	    -14.07002426	     -4.34172299	      0.00000000	      0.00000000	     28.41484712	      8.37771159	    -14.28589367	     34.23182014	     -0.54229089	    -17.17902905	    125.53121094	     87.63044237	    -16.52929271	      8.85167486	     11.69247607	    -15.22555829	    123.21919730	     10.13548522	      5.56984039	    -11.00637154	     -8.10629229
